<svg width="32" height="32" viewBox="0 0 32 32" fill="none" xmlns="http://www.w3.org/2000/svg">
  <g clip-path="url(#clip0_21_305)">
    <path
      d="M11.5842 4.12218C11.8527 3.58179 12.4047 3.24048 13.0064 3.24048H18.9938C19.5955 3.24048 20.1475 3.58179 20.416 4.12218L20.774 4.83542H25.548C26.4282 4.83542 27.1393 5.54965 27.1393 6.43035C27.1393 7.31106 26.4282 8.02529 25.548 8.02529H6.45216C5.57345 8.02529 4.86084 7.31106 4.86084 6.43035C4.86084 5.54965 5.57345 4.83542 6.45216 4.83542H11.2261L11.5842 4.12218ZM24.4938 26.4717C24.4142 27.7776 23.3749 28.7595 22.1117 28.7595H9.88842C8.62779 28.7595 7.58448 27.7776 7.50591 26.4717L6.4074 9.62022H25.548L24.4938 26.4717Z"
      fill="#FF5959" />
  </g>
  <defs>
    <clipPath id="clip0_21_305">
      <rect width="22.2785" height="25.519" fill="white" transform="translate(4.86084 3.24048)" />
    </clipPath>
  </defs>
</svg>