<svg width="32" height="32" viewBox="0 0 32 32" fill="none" xmlns="http://www.w3.org/2000/svg">
  <g clip-path="url(#clip0_30_52)">
    <path
      d="M11.5842 4.12221C11.8527 3.58183 12.4047 3.24051 13.0064 3.24051H18.9938C19.5955 3.24051 20.1475 3.58183 20.416 4.12221L20.774 4.83545H25.548C26.4282 4.83545 27.1393 5.54968 27.1393 6.43038C27.1393 7.31109 26.4282 8.02532 25.548 8.02532H6.45216C5.57345 8.02532 4.86084 7.31109 4.86084 6.43038C4.86084 5.54968 5.57345 4.83545 6.45216 4.83545H11.2261L11.5842 4.12221ZM24.4938 26.4718C24.4142 27.7776 23.3749 28.7595 22.1117 28.7595H9.88842C8.62779 28.7595 7.58448 27.7776 7.50591 26.4718L6.4074 9.62026H25.548L24.4938 26.4718Z"
      fill="#D8D8D8" />
  </g>
  <defs>
    <clipPath id="clip0_30_52">
      <rect width="22.2785" height="25.519" fill="white" transform="translate(4.86084 3.24051)" />
    </clipPath>
  </defs>
</svg>